<?xml version="1.0" encoding="UTF-8"?>
<svg width="398px" height="50px" viewBox="0 0 398 50" version="1.1" xmlns="http://www.w3.org/2000/svg" xmlns:xlink="http://www.w3.org/1999/xlink">
    <title>SPACEX</title>
    <g id="Page-1" stroke="none" stroke-width="1" fill="none" fill-rule="evenodd">
        <g id="SPACEX" transform="translate(0.500000, 0.700000)" fill="#FFFFFF" fill-rule="nonzero">
            <path d="M36,29.8 L9.4,29.8 L9.4,23.2 L43.7,23.2 C42.8,20.4 39.9,17.8 34.8,17.8 L9.9,17.8 C4.2,17.8 0.9,19.9 0.9,24.5 L0.9,29.4 C0.9,33.4 4.3,35.7 9.3,35.7 L36.2,35.7 L36.2,42.7 L0,42.7 C0.9,46.5 3.8,48.5 9,48.5 L36.1,48.5 C41.8,48.5 44.6,46.3 44.6,41.6 L44.6,36.7 C44.6,32.4 41.3,30.1 36,29.8 Z" id="Path"></path>
            <path d="M90.3,17.9 L57.5,17.9 L57.5,48.6 L66.8,48.6 L66.8,36.8 L91,36.8 C97.7,36.8 101.4,34.5 101.4,29.1 L101.4,25.7 C101.3,20.7 97.1,17.9 90.3,17.9 Z M93.3,27.7 C93.3,29.9 92.9,31.1 89.3,31.1 L66.8,31.1 L66.9,23.1 L88.9,23.1 C92.9,23.1 93.4,24.3 93.4,26.4 L93.4,27.7 L93.3,27.7 Z" id="Shape"></path>
            <polygon id="Path" points="128.4 16.6 122.8 23.5 132.3 36.6 112.5 36.6 107.6 41.8 136.2 41.8 141.1 48.6 152.1 48.6"></polygon>
            <path d="M169.9,23.2 L204.7,23.2 C203.8,19.6 200.3,17.8 195.3,17.8 L169.3,17.8 C164.8,17.8 160.5,19.6 160.5,24.5 L160.5,41.7 C160.5,46.6 164.8,48.4 169.3,48.4 L195.6,48.4 C201.6,48.4 203.7,46.7 204.7,42.6 L169.9,42.6 L169.9,23.2 L169.9,23.2 Z" id="Path"></path>
            <g id="Group" transform="translate(217.400000, 17.900000)">
                <polygon id="Path" points="9.4 24.9 9.4 15.5 28.1 15.5 28.1 10.3 2.84217094e-14 10.3 2.84217094e-14 30.7 41.5 30.7 41.5 24.9"></polygon>
                <rect id="Rectangle" x="1" y="-3.55271368e-15" width="41.9" height="5.4"></rect>
            </g>
            <g id="Group" transform="translate(271.500000, 17.900000)">
                <path d="M14.6,0 L0,0 L17.2,12.6 C19.7,10.9 22.6,9.1 25.2,7.6 L14.6,0 Z" id="Path"></path>
                <path d="M35.8,15.7 C33.3,17.4 30.8,19.3 28.4,21.1 L41.4,30.6 L56.1,30.6 L35.8,15.7 Z" id="Path"></path>
            </g>
            <path d="M397.5,0 C317.5,4.6 280.5,38.8 272.2,46.9 L270.5,48.5 L285.3,48.5 C325.3,8.4 382.8,1.3 397.5,0 L397.5,0 Z" id="Path"></path>
        </g>
    </g>
</svg>